<?xml version="1.0" standalone="no"?>
<!DOCTYPE svg PUBLIC "-//W3C//DTD SVG 20010904//EN"
 "http://www.w3.org/TR/2001/REC-SVG-20010904/DTD/svg10.dtd">
<svg version="1.0" xmlns="http://www.w3.org/2000/svg"
 width="256.000000pt" height="256.000000pt" viewBox="0 0 256.000000 256.000000"
 preserveAspectRatio="xMidYMid meet">
<metadata>
Created by potrace 1.14, written by Peter Selinger 2001-2017
</metadata>
<g transform="translate(0.000000,256.000000) scale(0.100000,-0.100000)"
fill="#000000" stroke="none">
<path d="M1253 2388 c-42 -57 -96 -130 -242 -330 l-93 -128 -175 0 c-106 0
-191 -5 -215 -12 -52 -15 -118 -75 -147 -132 -22 -46 -23 -55 -23 -307 0 -142
-4 -262 -9 -265 -5 -3 -9 -11 -9 -17 0 -8 3 -8 9 1 6 10 10 8 14 -9 4 -14 1
-27 -6 -31 -9 -6 -9 -8 0 -8 10 0 29 -43 53 -122 7 -23 6 -26 -12 -23 -22 5
-51 25 -44 32 2 3 13 0 23 -6 15 -7 20 -7 20 4 0 8 -7 11 -16 7 -14 -5 -14 -3
-2 11 10 13 10 17 1 17 -7 0 -10 7 -6 16 3 9 2 12 -5 9 -6 -4 -18 0 -27 7 -27
24 -42 30 -42 19 0 -6 5 -11 10 -11 16 0 65 -48 57 -56 -3 -3 -13 1 -22 10
-19 18 -35 21 -35 5 0 -5 4 -8 9 -5 5 3 15 -2 22 -11 12 -15 12 -16 -5 -10
-13 5 -32 -1 -58 -19 -21 -15 -36 -29 -34 -32 3 -2 19 7 36 22 39 32 41 32 78
1 17 -14 34 -25 39 -24 24 4 33 -6 48 -53 9 -29 19 -59 21 -66 4 -8 0 -10 -10
-6 -9 3 -13 11 -9 17 3 5 1 7 -5 3 -6 -3 -13 -2 -17 4 -3 5 -11 10 -18 10 -6
0 -2 -7 10 -15 14 -10 19 -22 16 -35 -6 -21 11 -28 23 -8 4 7 3 8 -4 4 -7 -4
-12 -2 -12 4 0 7 7 9 16 6 9 -3 18 -6 20 -6 3 0 2 -4 -1 -10 -3 -5 -1 -10 6
-10 7 0 9 -3 6 -6 -3 -4 -1 -16 5 -27 6 -11 43 -112 83 -224 40 -112 83 -218
95 -236 26 -38 82 -79 129 -95 47 -17 914 -17 962 -1 49 17 115 69 138 110 11
20 48 114 81 210 72 205 86 234 112 236 16 2 17 -1 8 -13 -9 -10 -9 -14 -1
-14 10 0 12 5 11 25 -1 3 7 13 15 22 9 9 23 26 31 39 10 15 21 21 32 16 9 -3
4 6 -12 21 -16 15 -26 31 -22 35 4 4 16 -3 26 -15 9 -12 20 -19 24 -16 3 4 6
0 6 -7 0 -7 3 -10 7 -6 4 4 -6 18 -21 31 -32 27 -35 28 -54 17 -9 -6 -7 -13 8
-30 l20 -21 -39 -42 c-25 -26 -44 -38 -52 -33 -9 5 -6 10 9 15 23 9 30 29 11
29 -5 0 -7 -4 -4 -10 3 -5 1 -10 -5 -10 -7 0 -9 7 -6 16 3 9 6 20 6 26 0 6 8
3 19 -6 16 -15 19 -15 24 -1 8 19 -2 45 -16 45 -7 0 -7 -4 1 -12 14 -14 16
-28 3 -28 -15 0 -21 43 -9 58 7 8 14 23 15 35 2 12 8 24 14 27 5 4 7 14 3 23
-4 11 -1 17 7 17 7 0 10 -3 6 -6 -3 -3 20 -30 50 -60 31 -30 52 -54 47 -54 -6
0 -15 5 -22 12 -9 9 -12 9 -12 0 0 -7 5 -12 11 -12 5 0 7 -4 4 -10 -3 -5 -4
-10 0 -10 9 0 65 60 65 70 0 5 -14 23 -31 41 -28 29 -31 30 -43 14 -11 -15 -9
-21 12 -42 13 -13 27 -22 30 -18 3 3 -4 12 -16 21 -26 18 -29 34 -5 34 9 0 14
-3 10 -6 -3 -4 4 -15 16 -25 20 -16 21 -19 5 -35 -15 -15 -18 -15 -39 0 -13 9
-21 16 -18 16 3 0 -12 19 -34 42 -22 24 -35 44 -28 46 6 2 9 7 6 11 -2 5 4 31
14 59 10 28 18 52 16 54 -2 2 13 11 32 21 30 15 35 16 30 2 -4 -8 -2 -15 4
-15 21 0 3 33 -18 35 -12 1 -21 -3 -20 -8 1 -5 -3 -11 -9 -14 -8 -3 -11 69
-12 259 0 161 -4 279 -11 304 -13 50 -77 125 -128 150 -32 16 -69 20 -218 24
l-180 5 -127 175 c-70 96 -133 183 -140 193 -27 38 -90 122 -97 130 -4 4 -26
-16 -48 -45z"/>
<path d="M2263 1598 c-12 -6 -24 -21 -27 -34 -7 -26 12 -64 31 -64 6 0 10 -9
8 -20 -2 -11 1 -22 7 -26 6 -4 5 -10 -3 -15 -8 -5 -9 -9 -3 -9 6 0 10 -10 8
-22 -1 -13 -3 -23 -4 -23 -1 0 -3 -10 -4 -22 -2 -13 1 -23 5 -23 10 0 6 -34
-6 -42 -6 -5 -5 -8 4 -8 11 0 11 -3 1 -15 -9 -11 -9 -15 -1 -15 9 0 9 -5 0
-21 -6 -12 -7 -19 -1 -16 5 4 18 0 28 -9 18 -14 18 -15 -6 -9 -24 5 -24 5 -5
-7 14 -9 20 -24 21 -50 0 -21 -4 -38 -8 -38 -4 0 -8 -5 -8 -12 0 -6 9 -3 20 7
11 10 23 16 26 13 3 -3 -7 -15 -22 -27 -15 -11 -22 -21 -17 -21 5 0 14 5 21
12 6 6 15 9 18 5 4 -3 -1 -13 -9 -22 -17 -16 -13 -45 5 -45 7 0 6 5 -1 14 -9
10 -8 16 4 26 13 11 20 9 43 -11 15 -13 24 -20 20 -15 -4 5 -2 16 4 25 10 13
10 14 -1 4 -11 -9 -19 -6 -39 12 -14 14 -23 27 -19 31 3 3 13 -1 22 -10 16
-15 35 -14 35 3 0 5 -20 24 -43 42 -27 21 -43 41 -41 52 1 10 -6 23 -16 30
-14 8 -16 15 -8 24 7 9 7 13 -1 13 -7 0 -8 8 -1 25 7 17 6 25 -1 25 -8 0 -7 5
1 15 7 8 9 15 4 15 -5 0 -9 16 -9 35 0 19 2 35 5 35 3 0 5 11 5 24 0 13 -3 22
-6 20 -4 -2 -6 7 -5 20 0 13 3 23 6 21 10 -6 38 21 41 40 4 25 -9 65 -21 65
-5 0 -14 2 -22 4 -7 3 -23 0 -35 -6z m110 -472 c15 -11 27 -24 27 -28 0 -5
-13 1 -29 13 -16 12 -33 19 -38 16 -5 -3 -10 3 -10 14 -2 21 2 19 50 -15z"/>
<path d="M229 1213 c-1 -5 -1 -12 0 -17 1 -5 -5 -6 -13 -3 -10 4 -13 1 -9 -9
7 -18 -4 -18 -22 0 -8 7 -11 17 -7 20 3 4 -1 4 -11 1 -15 -6 -14 -9 5 -25 19
-15 20 -20 9 -34 -7 -9 -16 -14 -20 -12 -9 6 -6 -75 3 -96 5 -10 13 -18 19
-18 5 0 2 9 -8 20 -10 11 -16 23 -13 26 3 3 15 -7 27 -22 11 -15 21 -23 21
-18 0 5 -11 22 -25 38 -38 44 -30 56 10 14 33 -35 65 -42 65 -16 0 7 -5 6 -14
-1 -10 -9 -16 -8 -26 4 -10 13 -10 19 4 33 9 10 16 22 16 27 0 4 -9 -2 -20
-15 -11 -13 -23 -20 -27 -17 -3 4 4 19 18 33 22 23 24 24 36 8 16 -22 17 -10
1 15 -11 18 -13 18 -39 -12 -15 -17 -31 -29 -35 -25 -3 4 9 24 29 44 34 36 35
37 46 16 7 -12 16 -22 22 -22 5 0 -1 12 -15 27 -19 20 -22 29 -13 35 9 6 9 8
0 8 -7 0 -14 -3 -14 -7z"/>
<path d="M267 1213 c-11 -10 -8 -18 16 -45 24 -27 57 -43 57 -28 0 6 -10 10
-22 10 -12 0 -19 3 -15 6 3 4 -4 15 -16 24 -12 10 -19 21 -15 25 4 4 14 0 23
-9 19 -18 35 -21 35 -5 0 5 -4 8 -9 5 -5 -3 -14 1 -21 9 -14 16 -23 19 -33 8z"/>
<path d="M2344 1201 c1 -17 13 -32 48 -59 12 -10 18 -10 24 -1 4 7 3 9 -4 5
-6 -3 -19 5 -30 19 -11 13 -23 21 -27 17 -5 -4 -5 1 -2 10 3 10 2 20 -2 22 -5
3 -8 -3 -7 -13z"/>
<path d="M2384 1193 c18 -36 23 -40 23 -20 0 6 -9 21 -20 32 -19 20 -19 20 -3
-12z"/>
<path d="M2286 1177 c3 -10 9 -15 12 -12 3 3 0 11 -7 18 -10 9 -11 8 -5 -6z"/>
<path d="M335 1170 c-3 -6 1 -7 9 -4 18 7 21 14 7 14 -6 0 -13 -4 -16 -10z"/>
<path d="M2230 1170 c0 -6 7 -10 15 -10 8 0 15 2 15 4 0 2 -7 6 -15 10 -8 3
-15 1 -15 -4z"/>
<path d="M150 1160 c0 -5 5 -10 10 -10 6 0 10 5 10 10 0 6 -4 10 -10 10 -5 0
-10 -4 -10 -10z"/>
<path d="M2210 1158 c0 -9 -6 -19 -12 -21 -10 -4 -10 -6 0 -6 14 -1 28 26 18
36 -3 4 -6 -1 -6 -9z"/>
<path d="M2275 1143 c2 -18 -1 -33 -6 -33 -5 0 -9 -5 -9 -11 0 -5 4 -8 9 -4 5
3 12 -3 15 -12 2 -10 3 -3 1 15 -2 17 1 32 6 32 5 0 9 5 9 11 0 5 -4 8 -9 4
-5 -3 -12 3 -15 12 -2 10 -3 3 -1 -14z"/>
<path d="M2213 1123 c-12 -13 -18 -23 -13 -23 5 0 15 7 24 15 8 8 19 15 25 15
6 0 11 4 11 8 0 16 -25 8 -47 -15z"/>
<path d="M274 1131 c3 -5 -6 -17 -19 -27 -14 -10 -25 -23 -25 -27 0 -5 13 2
29 15 30 23 40 48 20 48 -5 0 -8 -4 -5 -9z"/>
<path d="M350 1125 c0 -8 4 -15 10 -15 5 0 7 7 4 15 -4 8 -8 15 -10 15 -2 0
-4 -7 -4 -15z"/>
<path d="M290 1089 c0 -5 5 -7 10 -4 6 3 10 8 10 11 0 2 -4 4 -10 4 -5 0 -10
-5 -10 -11z"/>
<path d="M2213 1081 c-9 -11 -21 -17 -26 -14 -5 3 -3 9 4 14 10 6 10 9 2 9
-16 0 -29 -23 -15 -28 6 -2 9 -9 7 -15 -3 -7 0 -19 5 -27 8 -13 12 -12 26 8
12 18 19 21 30 11 8 -7 14 -7 14 -1 0 18 -29 22 -45 5 -9 -8 -19 -12 -22 -9
-4 4 5 18 19 31 14 13 29 21 32 18 3 -4 6 -1 6 5 0 18 -18 14 -37 -7z"/>
<path d="M276 1067 c2 -16 -32 -44 -48 -39 -5 1 -8 -2 -8 -8 0 -5 2 -10 5 -10
11 0 75 45 75 53 0 5 -4 6 -9 2 -5 -3 -11 0 -14 7 -2 7 -3 5 -1 -5z"/>
<path d="M2256 1072 c-3 -5 1 -12 9 -16 8 -3 12 -12 9 -21 -3 -8 -1 -15 6 -15
6 0 9 4 5 9 -3 6 3 15 12 21 16 10 16 11 1 6 -10 -3 -21 2 -26 11 -6 9 -12 12
-16 5z"/>
<path d="M2356 1035 c4 -8 8 -15 10 -15 2 0 4 7 4 15 0 8 -4 15 -10 15 -5 0
-7 -7 -4 -15z"/>
<path d="M2300 1035 c1 -12 36 -55 45 -55 3 0 4 4 0 9 -3 5 0 11 7 14 7 2 5 3
-5 1 -9 -1 -24 7 -32 19 -8 12 -15 17 -15 12z"/>
<path d="M151 1025 c0 -13 24 -45 33 -45 4 0 5 4 1 9 -3 5 0 11 7 14 7 2 5 3
-5 1 -9 -1 -21 5 -27 14 -5 10 -9 13 -9 7z"/>
<path d="M2384 1017 c3 -11 0 -20 -9 -23 -8 -4 -12 -11 -9 -16 4 -6 10 -4 16
6 5 9 13 14 18 11 5 -3 12 0 16 6 4 7 3 9 -4 5 -6 -3 -16 2 -22 11 -11 17 -11
17 -6 0z"/>
<path d="M284 995 c-15 -13 -25 -27 -21 -31 4 -4 7 -1 7 6 0 7 3 11 6 7 4 -3
15 4 25 16 l19 22 19 -22 c10 -12 21 -19 25 -16 3 4 6 0 6 -7 0 -7 3 -10 7 -6
7 7 -43 56 -57 56 -4 0 -20 -11 -36 -25z"/>
<path d="M2300 990 c11 -11 20 -24 20 -29 0 -16 -50 -70 -71 -76 -11 -4 -18
-13 -15 -20 2 -7 -6 -28 -20 -46 -13 -18 -24 -38 -24 -43 0 -6 6 -2 12 9 17
30 35 45 42 37 4 -3 5 5 2 20 -3 19 1 29 17 37 12 7 33 27 46 46 22 33 23 36
7 60 -9 14 -21 25 -26 25 -6 0 -1 -9 10 -20z"/>
<path d="M210 990 c-9 -6 -10 -10 -3 -10 6 0 15 5 18 10 8 12 4 12 -15 0z"/>
<path d="M150 985 c0 -5 4 -16 9 -24 7 -10 12 -11 27 -1 16 9 16 11 2 6 -10
-3 -22 2 -27 12 -6 9 -10 13 -11 7z"/>
<path d="M310 980 c0 -5 0 -13 0 -17 0 -5 11 -9 24 -10 24 -2 24 -1 5 18 -21
21 -29 24 -29 9z"/>
<path d="M230 973 c0 -5 5 -15 10 -23 7 -12 9 -10 7 8 -1 19 -17 33 -17 15z"/>
<path d="M393 958 c-2 -18 0 -20 7 -8 12 18 13 30 2 30 -4 0 -9 -10 -9 -22z"/>
<path d="M2140 965 c-8 -9 -8 -15 -2 -15 6 0 12 6 15 13 3 8 13 2 31 -16 14
-15 26 -24 26 -19 0 11 -38 52 -49 52 -5 0 -14 -7 -21 -15z"/>
<path d="M2392 950 c1 -19 -6 -38 -22 -55 -13 -14 -20 -25 -16 -25 10 0 27 19
50 54 10 16 12 25 5 21 -9 -6 -11 -2 -7 13 4 12 2 22 -3 22 -5 0 -8 -13 -7
-30z"/>
<path d="M210 955 c0 -8 4 -15 10 -15 5 0 7 7 4 15 -4 8 -8 15 -10 15 -2 0 -4
-7 -4 -15z"/>
<path d="M416 955 c-3 -8 -1 -15 4 -15 6 0 10 7 10 15 0 8 -2 15 -4 15 -2 0
-6 -7 -10 -15z"/>
<path d="M2340 960 c0 -5 5 -10 10 -10 6 0 10 5 10 10 0 6 -4 10 -10 10 -5 0
-10 -4 -10 -10z"/>
<path d="M280 958 c0 -3 9 -15 20 -28 19 -21 20 -22 37 -4 17 17 17 18 -1 11
-12 -5 -26 -1 -37 9 -11 10 -19 15 -19 12z"/>
<path d="M183 935 c-3 -9 -3 -18 -1 -21 3 -3 8 4 11 16 6 23 -1 27 -10 5z"/>
<path d="M260 940 c0 -5 5 -10 11 -10 5 0 7 5 4 10 -3 6 -8 10 -11 10 -2 0 -4
-4 -4 -10z"/>
<path d="M365 940 c-3 -5 -1 -10 4 -10 6 0 11 5 11 10 0 6 -2 10 -4 10 -3 0
-8 -4 -11 -10z"/>
<path d="M2365 940 c-3 -5 -1 -10 4 -10 6 0 11 5 11 10 0 6 -2 10 -4 10 -3 0
-8 -4 -11 -10z"/>
<path d="M159 935 c-1 -3 -2 -8 -3 -12 -1 -5 -5 -14 -9 -20 -6 -9 -3 -11 7 -7
8 3 14 14 13 25 -1 18 -5 25 -8 14z"/>
<path d="M2313 905 c-26 -39 -27 -45 -12 -45 5 0 8 4 4 9 -3 5 -1 12 5 16 5 3
10 1 10 -4 0 -6 5 -11 12 -11 6 0 8 3 5 6 -4 4 3 15 15 25 11 11 16 19 11 19
-6 0 -16 -7 -23 -15 -7 -9 -15 -13 -18 -10 -3 3 3 14 13 25 10 11 14 20 9 20
-5 0 -19 -16 -31 -35z"/>
<path d="M200 919 c0 -7 -8 -18 -17 -25 -16 -13 -17 -15 -2 -26 9 -7 18 -20
22 -28 4 -12 6 -12 6 2 1 9 -7 21 -16 27 -10 5 -15 13 -10 17 4 4 15 0 25 -9
10 -10 23 -17 28 -17 4 0 -1 7 -13 15 -14 10 -19 22 -16 35 3 11 3 20 -1 20
-3 0 -6 -5 -6 -11z"/>
<path d="M233 919 c9 -5 17 -15 17 -21 0 -7 -5 -6 -15 2 -10 9 -15 9 -15 1 0
-11 13 -15 38 -12 16 2 15 -5 -5 -28 -9 -11 -20 -18 -25 -15 -4 3 -8 0 -8 -5
0 -19 25 -11 43 14 17 24 17 26 0 50 -10 13 -25 24 -33 24 -12 0 -11 -2 3 -10z"/>
<path d="M377 905 c-17 -24 -17 -26 0 -50 10 -13 25 -24 33 -24 12 0 11 2 -2
10 -10 5 -18 15 -18 21 0 7 5 6 15 -2 10 -9 15 -9 15 -1 0 11 -13 15 -37 12
-17 -2 -16 5 4 28 9 11 20 18 25 15 4 -3 8 0 8 5 0 19 -25 11 -43 -14z"/>
<path d="M431 914 c0 -11 3 -14 6 -6 3 7 2 16 -1 19 -3 4 -6 -2 -5 -13z"/>
<path d="M290 900 l23 -20 -23 -20 c-13 -11 -19 -20 -15 -20 5 0 17 7 27 17
17 15 19 15 36 0 10 -10 22 -17 27 -17 4 0 -2 9 -15 20 l-23 20 23 20 c13 11
19 20 15 20 -5 0 -17 -7 -27 -17 -17 -15 -19 -15 -36 0 -10 10 -22 17 -27 17
-4 0 2 -9 15 -20z"/>
<path d="M2375 860 c-17 -19 -17 -21 0 -40 15 -17 16 -22 4 -37 -9 -11 -10
-14 -2 -9 7 4 18 17 24 29 7 12 8 19 4 15 -9 -8 -40 20 -31 29 3 3 12 0 20 -6
11 -9 16 -9 22 0 4 7 3 9 -4 5 -6 -3 -14 -1 -18 5 -3 6 0 15 7 20 8 5 9 9 3 9
-6 0 -19 -9 -29 -20z"/>
<path d="M154 842 c0 -15 10 -36 22 -47 l20 -21 18 23 c9 13 13 23 8 23 -6 0
-13 -8 -17 -17 -6 -16 -8 -16 -25 5 -11 13 -17 29 -14 36 3 8 1 17 -4 20 -5 3
-9 -7 -8 -22z"/>
<path d="M2205 860 c-3 -5 -1 -10 4 -10 6 0 11 5 11 10 0 6 -2 10 -4 10 -3 0
-8 -4 -11 -10z"/>
<path d="M2263 855 c-3 -9 -3 -18 -1 -21 3 -3 8 4 11 16 6 23 -1 27 -10 5z"/>
<path d="M2152 821 c-12 -21 -22 -43 -22 -47 1 -5 10 7 20 28 13 24 26 35 37
34 10 -2 12 -1 5 1 -7 3 -10 9 -7 14 4 5 2 9 -3 9 -4 0 -18 -17 -30 -39z"/>
<path d="M2335 850 c3 -5 8 -10 11 -10 2 0 4 5 4 10 0 6 -5 10 -11 10 -5 0 -7
-4 -4 -10z"/>
<path d="M180 836 c0 -8 4 -17 9 -20 5 -4 7 3 4 14 -6 23 -13 26 -13 6z"/>
<path d="M300 835 c-9 -10 -9 -15 -1 -15 6 0 11 6 11 12 0 7 10 3 22 -9 18
-18 19 -24 8 -37 -7 -9 -8 -16 -2 -16 8 0 22 22 22 34 0 6 -37 46 -42 46 -3 0
-11 -7 -18 -15z"/>
<path d="M2280 838 c0 -7 -16 -23 -36 -36 -20 -13 -34 -26 -31 -29 3 -3 16 4
28 16 26 24 48 29 29 6 -7 -9 -10 -18 -6 -22 3 -3 6 -1 6 5 0 7 3 11 8 11 4
-1 14 -1 22 0 13 1 12 3 -2 11 -10 6 -14 18 -11 30 3 11 3 20 -1 20 -3 0 -6
-6 -6 -12z"/>
<path d="M2324 829 c15 -12 25 -24 22 -27 -3 -3 -15 3 -26 13 -11 10 -20 13
-20 8 0 -6 7 -14 16 -17 14 -5 14 -9 3 -23 -13 -15 -12 -15 12 0 14 10 29 14
32 10 4 -3 7 -3 7 2 0 10 -52 55 -64 55 -5 0 3 -10 18 -21z"/>
<path d="M260 819 c0 -5 5 -7 10 -4 6 3 10 8 10 11 0 2 -4 4 -10 4 -5 0 -10
-5 -10 -11z"/>
<path d="M365 820 c3 -5 8 -10 11 -10 2 0 4 5 4 10 0 6 -5 10 -11 10 -5 0 -7
-4 -4 -10z"/>
<path d="M444 806 c-9 -15 -14 -29 -10 -33 3 -3 6 -1 6 5 0 6 7 18 16 27 9 9
14 18 11 21 -3 3 -13 -6 -23 -20z"/>
<path d="M227 794 c-10 -13 -14 -24 -10 -24 9 0 36 40 31 45 -2 2 -11 -8 -21
-21z"/>
<path d="M382 800 c-18 -29 -15 -38 4 -12 9 13 14 25 12 27 -2 2 -9 -5 -16
-15z"/>
<path d="M413 813 c4 -3 0 -15 -10 -25 -9 -10 -13 -18 -8 -18 9 0 34 31 35 43
0 4 -5 7 -12 7 -6 0 -8 -3 -5 -7z"/>
<path d="M2163 795 c-6 -14 -8 -25 -4 -25 4 0 13 11 19 25 6 14 8 25 4 25 -4
0 -12 -11 -19 -25z"/>
<path d="M283 803 c4 -3 2 -12 -4 -20 -9 -9 -8 -13 0 -13 6 0 11 2 11 4 0 2 3
11 6 20 4 10 1 16 -7 16 -7 0 -9 -3 -6 -7z"/>
<path d="M313 788 c-2 -18 0 -20 7 -8 12 18 13 30 2 30 -4 0 -9 -10 -9 -22z"/>
<path d="M255 789 c-4 -6 -5 -12 -2 -15 2 -3 7 2 10 11 7 17 1 20 -8 4z"/>
<path d="M460 785 c-9 -10 -9 -15 -1 -15 6 0 11 5 11 11 0 5 5 7 12 3 7 -4 8
-3 4 4 -9 15 -11 15 -26 -3z"/>
</g>
</svg>
